<svg viewBox="0 0 4172 714" height="30px" xmlns="http://www.w3.org/2000/svg" fill-rule="evenodd" clip-rule="evenodd" stroke-linejoin="round" stroke-miterlimit="2" ><path fill="#f6f6f6" d="M6.38 365.57C-19.734 478.466 31.722 574.466 209.13 574.466c136.705 0 248.065-81.408 278.017-208.896 25.344-106.752-22.272-204.289-197.376-204.289-136.705 0-254.209 82.945-283.393 204.289zm276.48.768c-37.633 122.112-58.369 142.848-76.8 141.312-19.2 0-34.56-13.824 4.607-140.544 36.096-115.968 58.368-137.472 76.8-137.472 19.2 0 33.793 16.128-4.607 136.704zM586.22 43.777c-6.144 25.344 36.864 21.504 25.344 59.136L494.828 486.146c-13.824 46.08-41.472 36.096-48.384 57.6-3.84 13.824 7.68 23.808 35.328 23.808h175.104c33.024 0 46.08-6.144 50.688-19.2 5.376-19.968-33.792-17.664-20.736-60.672l48.384-155.904v1.536c13.824-43.776 37.632-56.832 53.76-56.832 15.36 0 28.416 12.288 18.432 37.632l-42.24 110.592c-9.216 23.808-13.824 46.08-13.824 63.744.768 52.224 43.776 86.016 111.36 86.016 86.784 0 131.328-49.152 130.56-91.392 0-8.448-3.072-16.896-8.448-16.896s-9.984 16.128-24.576 16.128c-8.448 0-13.056-8.448-8.448-20.736l46.848-151.296c26.112-84.48-18.432-148.993-96.768-148.993-46.848 0-92.928 13.825-135.936 69.889L807.404 96c16.128-52.992-1.536-96-81.408-96-61.44 0-133.632 19.968-139.776 43.776zM1227.5 161.281c-61.44 0-133.631 19.969-139.775 44.545-6.912 25.344 35.328 21.504 24.576 58.368l-68.353 221.952c-14.592 46.08-41.472 36.096-48.384 57.6-3.072 13.824 7.68 23.808 35.328 23.808h175.105c33.024 0 46.848-6.144 50.688-19.2 6.144-19.968-33.792-17.664-19.968-60.672l50.688-164.352c13.824-36.096 35.328-46.848 49.92-46.848 15.36 0 28.416 12.288 18.432 37.632l-42.24 110.592c-9.216 23.808-13.824 46.08-13.824 63.744.768 52.224 43.776 86.016 111.36 86.016 86.784 0 131.328-49.152 130.56-91.392 0-8.448-3.072-16.896-8.448-16.896s-9.984 16.128-24.576 16.128c-8.448 0-13.056-8.448-8.448-20.736l42.24-137.472c14.592-36.096 36.864-47.616 51.456-47.616 15.36 0 28.416 12.288 18.432 37.632l-42.24 110.592c-9.216 23.808-13.824 46.08-13.824 63.744.768 52.224 43.776 86.016 111.36 86.016 86.784 0 131.328-49.152 130.56-91.392 0-8.448-3.072-16.896-8.448-16.896-6.144 0-9.984 16.128-24.576 16.128-8.448 0-13.056-8.448-8.448-20.736l46.848-151.296c26.112-84.48-18.432-148.993-96.768-148.993-52.992 0-105.216 17.665-152.832 92.929-3.84-55.296-43.776-92.929-103.68-92.929-49.152 0-96.768 15.36-142.08 77.569 2.304-49.152-29.952-77.569-80.64-77.569z" fill-rule="nonzero"/><path fill="#f6f6f6" d="M2157.555 223.49c-16.896 56.832 0 110.592 41.472 148.224-24.576 62.976-49.92 96-68.352 96-7.68 0-12.288-6.144-13.824-19.2l-23.04-168.96c-9.216-76.8-35.328-119.04-102.912-119.04-69.888 0-122.112 49.92-139.008 104.448-7.68 25.344-3.072 36.096 2.304 36.096 6.144 0 13.824-10.752 23.04-10.752s14.592 5.376 17.664 26.112l30.72 188.16c9.216 56.064 32.256 78.336 83.712 87.552-26.88 26.112-55.296 40.704-90.624 42.24-8.448-55.296-39.168-90.624-86.784-90.624-28.416 0-52.224 14.592-61.44 44.544-17.664 57.6 26.112 125.184 123.648 125.184 166.656 0 338.688-173.568 396.288-363.264 34.56-114.432 3.84-188.929-59.904-188.929-31.488 0-59.904 19.2-72.96 62.209zM2407.923 92.93c-7.68 21.503-9.216 48.383-1.536 78.336h-19.2c-43.776 0-53.76 8.448-52.992 26.88 0 27.648 58.368 27.648 39.168 91.392l-59.904 196.608c-14.592 46.08-41.472 36.096-48.384 57.6-3.84 13.824 7.68 23.808 35.328 23.808h175.105c33.024 0 46.08-6.144 50.688-19.2 5.376-19.968-33.792-16.896-20.736-60.672l76.032-248.832h23.04c39.936 0 55.296-12.288 61.44-33.792 5.376-21.504-6.912-33.792-38.4-33.792h-45.312c-22.272 0-32.256-30.72-20.736-70.657 11.52-38.4 33.792-49.152 62.208-49.152-24.576 40.704-3.072 95.232 66.048 95.232 44.544 0 79.872-16.128 86.016-48.384C2785.012 50.69 2740.468.001 2612.98.001c-139.008 0-188.928 49.152-205.057 92.928z" fill-rule="nonzero"/><path fill="#f6f6f6" d="M2632.953 365.57c-26.112 112.896 25.344 208.896 202.752 208.896 136.705 0 248.065-81.408 278.017-208.896 25.344-106.752-22.272-204.289-197.377-204.289-136.704 0-254.208 82.945-283.392 204.289zm276.48.768c-37.632 122.112-58.368 142.848-76.8 141.312-19.2 0-34.56-13.824 4.608-140.544 36.096-115.968 58.368-137.472 76.8-137.472 19.2 0 33.793 16.128-4.608 136.704zM3136.74 365.57c-26.112 112.896 25.344 208.896 202.753 208.896 136.704 0 248.064-81.408 278.016-208.896 25.344-106.752-22.272-204.289-197.376-204.289-136.704 0-254.209 82.945-283.393 204.289zm276.48.768c-37.631 122.112-58.367 142.848-76.8 141.312-19.2 0-34.56-13.824 4.609-140.544 36.096-115.968 58.368-137.472 76.8-137.472 19.2 0 33.792 16.128-4.608 136.704zM4165.867 96.001c16.128-52.992-1.536-96-81.408-96-61.44 0-133.632 19.968-139.776 43.776-6.144 25.344 36.864 22.272 25.344 59.136l-26.112 86.017c-23.808-19.2-52.992-30.72-99.072-30.72-126.72 0-211.2 135.168-208.897 274.944 1.536 82.944 63.744 136.704 132.097 136.704 39.168 0 76.032-16.896 104.448-52.992 13.824 31.488 54.528 52.992 105.984 52.992 67.584 0 120.576-49.92 119.808-91.392 0-8.448-3.072-17.664-8.448-17.664-6.144 0-9.984 16.128-24.576 16.128-8.448 0-13.056-7.68-9.216-19.968l109.824-360.96zm-297.984 339.457c-7.68 24.576-16.128 34.56-29.952 34.56-19.2 0-27.648-14.592-27.648-42.24-1.536-74.496 43.008-197.376 90.624-197.376 10.752 0 19.2 3.84 26.88 10.752l-59.904 194.304z" fill-rule="nonzero"/></svg>